<svg width="29" height="28" viewBox="0 0 29 28" fill="none" xmlns="http://www.w3.org/2000/svg">
<g opacity="0.7" clip-path="url(#clip0_33_572)">
<path fill-rule="evenodd" clip-rule="evenodd" d="M14.5116 0C6.76354 0 0.5 6.30972 0.5 14.1157C0.5 20.3554 4.51327 25.6372 10.0807 27.5066C10.7768 27.6472 11.0318 27.2029 11.0318 26.8292C11.0318 26.502 11.0088 25.3803 11.0088 24.2115C7.11115 25.053 6.29949 22.5288 6.29949 22.5288C5.67311 20.8929 4.745 20.4724 4.745 20.4724C3.46929 19.6077 4.83793 19.6077 4.83793 19.6077C6.25303 19.7012 6.99557 21.0567 6.99557 21.0567C8.24804 23.2066 10.2663 22.5991 11.0782 22.2251C11.1941 21.3136 11.5655 20.6827 11.9599 20.3322C8.8512 20.005 5.58047 18.7898 5.58047 13.3677C5.58047 11.8253 6.13687 10.5633 7.01851 9.58188C6.87941 9.2314 6.39213 7.78217 7.1579 5.84251C7.1579 5.84251 8.34097 5.46852 11.0085 7.29145C12.1506 6.98246 13.3284 6.82528 14.5116 6.82396C15.6947 6.82396 16.9007 6.98772 18.0143 7.29145C20.6822 5.46852 21.8653 5.84251 21.8653 5.84251C22.631 7.78217 22.1435 9.2314 22.0044 9.58188C22.9092 10.5633 23.4427 11.8253 23.4427 13.3677C23.4427 18.7898 20.172 19.9814 17.0401 20.3322C17.5506 20.7762 17.9911 21.6174 17.9911 22.9496C17.9911 24.8425 17.9682 26.3617 17.9682 26.8289C17.9682 27.2029 18.2234 27.6472 18.9192 27.5069C24.4867 25.6369 28.4999 20.3554 28.4999 14.1157C28.5229 6.30972 22.2364 0 14.5116 0Z" fill="#E4E4E4"/>
</g>
<defs>
<clipPath id="clip0_33_572">
<rect width="28" height="28" fill="white" transform="translate(0.5)"/>
</clipPath>
</defs>
</svg>
