<svg width="29" height="28" viewBox="0 0 29 28" fill="none" xmlns="http://www.w3.org/2000/svg">
<g opacity="0.7">
<path d="M0.5 28L2.46816 20.8098C1.25366 18.7052 0.6155 16.3193 0.616666 13.8728C0.620166 6.22417 6.84432 0 14.4918 0C18.203 0.00116667 21.6866 1.44667 24.3069 4.06933C26.9261 6.692 28.3681 10.178 28.3669 13.8857C28.3634 21.5355 22.1393 27.7597 14.4918 27.7597C12.1701 27.7585 9.88231 27.1763 7.85582 26.0703L0.5 28ZM8.19648 23.5585C10.1518 24.7193 12.0185 25.4147 14.4871 25.4158C20.8431 25.4158 26.0208 20.2428 26.0243 13.8833C26.0266 7.511 20.8735 2.345 14.4965 2.34267C8.13582 2.34267 2.96166 7.51567 2.95933 13.874C2.95816 16.4698 3.71883 18.4135 4.99632 20.447L3.83083 24.703L8.19648 23.5585ZM21.4813 17.1838C21.395 17.0392 21.164 16.9528 20.8163 16.779C20.4698 16.6052 18.7653 15.7663 18.4468 15.6508C18.1295 15.5353 17.8985 15.477 17.6663 15.8247C17.4353 16.1712 16.7703 16.9528 16.5685 17.1838C16.3666 17.4148 16.1636 17.444 15.8171 17.2702C15.4706 17.0963 14.353 16.7312 13.0288 15.5493C11.9986 14.63 11.3021 13.4948 11.1003 13.1472C10.8985 12.8007 11.0793 12.6128 11.252 12.4402C11.4083 12.285 11.5985 12.0353 11.7723 11.8323C11.9485 11.6317 12.0056 11.487 12.1223 11.2548C12.2378 11.0238 12.1806 10.8208 12.0931 10.647C12.0056 10.4743 11.3126 8.7675 11.0245 8.07333C10.7421 7.39783 10.4563 7.48883 10.244 7.47833L9.57898 7.46667C9.34798 7.46667 8.97231 7.553 8.65498 7.90067C8.33765 8.24833 7.44165 9.086 7.44165 10.7928C7.44165 12.4997 8.68415 14.1482 8.85681 14.3792C9.03065 14.6102 11.301 18.1125 14.7788 19.614C15.606 19.971 16.2523 20.1845 16.7551 20.3443C17.5858 20.608 18.3418 20.5707 18.9391 20.482C19.6053 20.3828 20.9901 19.6432 21.2795 18.8335C21.5688 18.0227 21.5688 17.3285 21.4813 17.1838Z" fill="#E4E4E4"/>
</g>
</svg>
