<svg width="29" height="28" viewBox="0 0 29 28" fill="none" xmlns="http://www.w3.org/2000/svg">
<g opacity="0.7" clip-path="url(#clip0_33_574)">
<path d="M24.2032 4.84825C22.4186 4.02939 20.5048 3.42609 18.5039 3.08055C18.4674 3.07388 18.431 3.09055 18.4123 3.12388C18.1661 3.56163 17.8935 4.13271 17.7026 4.58158C15.5505 4.25938 13.4094 4.25938 11.3014 4.58158C11.1104 4.12273 10.8279 3.56163 10.5807 3.12388C10.5619 3.09166 10.5255 3.07499 10.4891 3.08055C8.48923 3.42498 6.57549 4.02828 4.78976 4.84825C4.7743 4.85492 4.76105 4.86604 4.75225 4.88047C1.12229 10.3036 0.127891 15.5934 0.61571 20.8176C0.617917 20.8431 0.632265 20.8676 0.652131 20.8831C3.04708 22.6419 5.36699 23.7096 7.64383 24.4174C7.68026 24.4285 7.71887 24.4152 7.74206 24.3852C8.28065 23.6497 8.76075 22.8741 9.17239 22.0586C9.19668 22.0108 9.17349 21.9542 9.12384 21.9353C8.36232 21.6464 7.6372 21.2942 6.93968 20.8942C6.88451 20.862 6.8801 20.7831 6.93085 20.7453C7.07763 20.6353 7.22446 20.5209 7.36461 20.4053C7.38997 20.3842 7.42531 20.3798 7.45512 20.3931C12.0375 22.4853 16.9985 22.4853 21.5268 20.3931C21.5566 20.3787 21.5919 20.3831 21.6184 20.4042C21.7586 20.5198 21.9054 20.6353 22.0533 20.7453C22.104 20.7831 22.1007 20.862 22.0455 20.8942C21.348 21.302 20.6229 21.6464 19.8603 21.9342C19.8106 21.9531 19.7885 22.0108 19.8128 22.0586C20.2333 22.873 20.7134 23.6485 21.242 24.3841C21.2641 24.4152 21.3038 24.4285 21.3403 24.4174C23.6282 23.7096 25.9481 22.6419 28.343 20.8831C28.364 20.8676 28.3772 20.8442 28.3794 20.8187C28.9633 14.7789 27.4016 9.53249 24.2396 4.88157C24.2319 4.86604 24.2186 4.85492 24.2032 4.84825ZM9.85669 17.6366C8.47708 17.6366 7.34032 16.37 7.34032 14.8145C7.34032 13.259 8.45504 11.9924 9.85669 11.9924C11.2694 11.9924 12.3951 13.2701 12.373 14.8145C12.373 16.37 11.2583 17.6366 9.85669 17.6366ZM19.1605 17.6366C17.781 17.6366 16.6442 16.37 16.6442 14.8145C16.6442 13.259 17.7589 11.9924 19.1605 11.9924C20.5732 11.9924 21.699 13.2701 21.6769 14.8145C21.6769 16.37 20.5732 17.6366 19.1605 17.6366Z" fill="#E4E4E4"/>
</g>
<defs>
<clipPath id="clip0_33_574">
<rect width="28" height="28" fill="E4E4E4" transform="translate(0.5)"/>
</clipPath>
</defs>
</svg>
