<svg width="29" height="28" viewBox="0 0 29 28" fill="none" xmlns="http://www.w3.org/2000/svg">
<g opacity="0.7" clip-path="url(#clip0_33_566)">
<path d="M14.5 2.52109C18.2406 2.52109 18.6836 2.5375 20.1547 2.60312C21.5219 2.66328 22.2602 2.89297 22.7523 3.08438C23.4031 3.33594 23.8734 3.64219 24.3602 4.12891C24.8523 4.62109 25.1531 5.08594 25.4047 5.73672C25.5961 6.22891 25.8258 6.97266 25.8859 8.33437C25.9516 9.81094 25.968 10.2539 25.968 13.9891C25.968 17.7297 25.9516 18.1727 25.8859 19.6438C25.8258 21.0109 25.5961 21.7492 25.4047 22.2414C25.1531 22.8922 24.8469 23.3625 24.3602 23.8492C23.868 24.3414 23.4031 24.6422 22.7523 24.8938C22.2602 25.0852 21.5164 25.3148 20.1547 25.375C18.6781 25.4406 18.2352 25.457 14.5 25.457C10.7594 25.457 10.3164 25.4406 8.84531 25.375C7.47813 25.3148 6.73984 25.0852 6.24766 24.8938C5.59688 24.6422 5.12656 24.3359 4.63984 23.8492C4.14766 23.357 3.84687 22.8922 3.59531 22.2414C3.40391 21.7492 3.17422 21.0055 3.11406 19.6438C3.04844 18.1672 3.03203 17.7242 3.03203 13.9891C3.03203 10.2484 3.04844 9.80547 3.11406 8.33437C3.17422 6.96719 3.40391 6.22891 3.59531 5.73672C3.84687 5.08594 4.15313 4.61562 4.63984 4.12891C5.13203 3.63672 5.59688 3.33594 6.24766 3.08438C6.73984 2.89297 7.48359 2.66328 8.84531 2.60312C10.3164 2.5375 10.7594 2.52109 14.5 2.52109ZM14.5 0C10.6992 0 10.2234 0.0164062 8.73047 0.0820312C7.24297 0.147656 6.22031 0.388281 5.33437 0.732812C4.41016 1.09375 3.62813 1.56953 2.85156 2.35156C2.06953 3.12812 1.59375 3.91016 1.23281 4.82891C0.888281 5.72031 0.647656 6.7375 0.582031 8.225C0.516406 9.72344 0.5 10.1992 0.5 14C0.5 17.8008 0.516406 18.2766 0.582031 19.7695C0.647656 21.257 0.888281 22.2797 1.23281 23.1656C1.59375 24.0898 2.06953 24.8719 2.85156 25.6484C3.62813 26.425 4.41016 26.9062 5.32891 27.2617C6.22031 27.6062 7.2375 27.8469 8.725 27.9125C10.218 27.9781 10.6937 27.9945 14.4945 27.9945C18.2953 27.9945 18.7711 27.9781 20.2641 27.9125C21.7516 27.8469 22.7742 27.6062 23.6602 27.2617C24.5789 26.9062 25.3609 26.425 26.1375 25.6484C26.9141 24.8719 27.3953 24.0898 27.7508 23.1711C28.0953 22.2797 28.3359 21.2625 28.4016 19.775C28.4672 18.282 28.4836 17.8062 28.4836 14.0055C28.4836 10.2047 28.4672 9.72891 28.4016 8.23594C28.3359 6.74844 28.0953 5.72578 27.7508 4.83984C27.4062 3.91016 26.9305 3.12812 26.1484 2.35156C25.3719 1.575 24.5898 1.09375 23.6711 0.738281C22.7797 0.39375 21.7625 0.153125 20.275 0.0875C18.7766 0.0164063 18.3008 0 14.5 0Z" fill="#E4E4E4"/>
<path d="M14.5 6.80859C10.5297 6.80859 7.30859 10.0297 7.30859 14C7.30859 17.9703 10.5297 21.1914 14.5 21.1914C18.4703 21.1914 21.6914 17.9703 21.6914 14C21.6914 10.0297 18.4703 6.80859 14.5 6.80859ZM14.5 18.6648C11.9242 18.6648 9.83516 16.5758 9.83516 14C9.83516 11.4242 11.9242 9.33516 14.5 9.33516C17.0758 9.33516 19.1648 11.4242 19.1648 14C19.1648 16.5758 17.0758 18.6648 14.5 18.6648Z" fill="#E4E4E4"/>
<path d="M23.6547 6.52412C23.6547 7.45381 22.9 8.20303 21.9758 8.20303C21.0461 8.20303 20.2969 7.44834 20.2969 6.52412C20.2969 5.59443 21.0516 4.84521 21.9758 4.84521C22.9 4.84521 23.6547 5.5999 23.6547 6.52412Z" fill="#E4E4E4"/>
</g>
<defs>
<clipPath id="clip0_33_566">
<rect width="28" height="28" fill="E4E4E4" transform="translate(0.5)"/>
</clipPath>
</defs>
</svg>
