<svg width="26" height="25" viewBox="0 0 26 25" fill="none" xmlns="http://www.w3.org/2000/svg">
<path d="M12.9376 0.00794346C11.2875 -0.0510815 9.64241 0.219325 8.10119 0.802897C6.55997 1.38647 5.15449 2.27114 3.96932 3.4037C2.78415 4.53626 1.84376 5.8933 1.20475 7.39318C0.565731 8.89306 0.241286 10.5048 0.250928 12.1314C0.229665 13.8201 0.573954 15.494 1.26086 17.0414C1.94776 18.5887 2.9615 19.9741 4.23454 21.1053C4.33561 21.1939 4.4179 21.3014 4.47668 21.4215C4.53547 21.5417 4.56958 21.672 4.57708 21.8052V24.0299C4.58403 24.1939 4.63136 24.3538 4.71498 24.4957C4.7986 24.6377 4.91601 24.7575 5.05709 24.8448C5.19817 24.9322 5.35868 24.9844 5.52481 24.997C5.69093 25.0096 5.85767 24.9823 6.01067 24.9173L8.548 23.8299C8.76466 23.7493 9.00373 23.7493 9.22039 23.8299C10.4198 24.1488 11.6572 24.3086 12.8995 24.3048C16.17 24.3098 19.3086 23.0347 21.6247 20.7599C23.9409 18.4851 25.2449 15.3971 25.25 12.1751C25.255 8.95317 23.9607 5.86119 21.6517 3.5794C19.3426 1.29761 16.2081 0.0129156 12.9376 0.00794346ZM20.5496 9.33175L16.8324 15.156C16.6922 15.3753 16.5074 15.5636 16.2896 15.7089C16.0718 15.8543 15.8258 15.9536 15.5671 16.0006C15.3084 16.0475 15.0427 16.0412 14.7866 15.9819C14.5305 15.9225 14.2897 15.8116 14.0794 15.6559L11.1107 13.4687C10.9789 13.3714 10.8187 13.3187 10.654 13.3187C10.4893 13.3187 10.329 13.3714 10.1973 13.4687L6.18828 16.4683C6.07663 16.5532 5.93808 16.5963 5.79723 16.59C5.65637 16.5837 5.52233 16.5285 5.4189 16.4341C5.31547 16.3397 5.24934 16.2122 5.23226 16.0744C5.21518 15.9365 5.24824 15.7971 5.32559 15.6809L9.04278 9.85669C9.18297 9.63741 9.36779 9.44914 9.58556 9.30378C9.80334 9.15842 10.0493 9.05911 10.308 9.01213C10.5667 8.96516 10.8325 8.97152 11.0886 9.03084C11.3446 9.09015 11.5854 9.20113 11.7958 9.35675L14.7645 11.544C14.8962 11.6413 15.0565 11.694 15.2212 11.694C15.3859 11.694 15.5461 11.6413 15.6779 11.544L19.6869 8.54436C19.7985 8.45953 19.9371 8.41642 20.0779 8.42269C20.2188 8.42896 20.3528 8.4842 20.4563 8.5786C20.5597 8.67301 20.6258 8.80046 20.6429 8.93835C20.66 9.07623 20.6269 9.21561 20.5496 9.33175Z" fill="#A5A5A7"/>
</svg>
