<svg width="56" height="17" viewBox="0 0 56 17" fill="none" xmlns="http://www.w3.org/2000/svg">
<path fill-rule="evenodd" clip-rule="evenodd" d="M35.2082 14.7092C35.6023 13.7711 36.4794 11.669 36.0623 11.1596H36.0654C35.6501 10.6491 33.3194 10.917 32.2711 11.0375L32.2689 11.0377C31.9499 11.0744 31.9009 10.8087 32.1876 10.6164C34.0491 9.36422 37.0988 9.72241 37.453 10.1452C37.8072 10.568 37.3564 13.4951 35.613 14.8927C35.3447 15.107 35.0886 14.9925 35.2082 14.7092ZM22.6825 16.1566C26.7366 16.1566 31.4577 14.9309 34.7099 12.6335V12.6379C35.2481 12.2503 34.7866 11.6807 34.2376 11.9039C30.6877 13.3374 26.8771 14.0857 23.0244 14.1059C17.6793 14.1059 12.5089 12.7025 8.32598 10.3728C7.95951 10.1687 7.68658 10.5284 7.99325 10.7911C12.0202 14.2696 17.2588 16.1831 22.6825 16.1566Z" fill="#FF9900"/>
<path d="M4.16406 0.0224609C5.00739 0.0224609 6.10909 0.236004 6.77148 0.84668C7.54908 1.54368 7.54432 2.45695 7.53906 3.4541C7.53863 3.53623 7.53809 3.61894 7.53809 3.70215V6.28418C7.53809 6.97957 7.80695 7.32607 8.09082 7.69043C8.12449 7.73365 8.15873 7.77694 8.19238 7.82129C8.30278 7.96809 8.32732 8.15162 8.19238 8.26172C7.83818 8.54505 7.20924 9.06823 6.86426 9.36328L6.85059 9.36035C6.73658 9.45474 6.57276 9.47024 6.44141 9.39941C5.9509 9.00868 5.8033 8.79704 5.57617 8.47266C5.53713 8.41689 5.49509 8.35788 5.44922 8.29395C4.49703 9.22171 3.82403 9.49902 2.59277 9.49902C1.13462 9.49899 0 8.63745 0 6.91406C6.8613e-05 5.56803 0.766585 4.65329 1.83984 4.2041C2.63241 3.87113 3.69025 3.76806 4.60449 3.67871C4.77438 3.66211 4.93931 3.64593 5.09668 3.62891V3.41504C5.09668 3.37423 5.09731 3.33217 5.09766 3.29004C5.10069 2.92463 5.10382 2.51753 4.88672 2.21094C4.67521 1.90573 4.27372 1.78038 3.91504 1.78027C3.25418 1.78027 2.66464 2.1055 2.52051 2.77637C2.50207 2.93267 2.37634 3.05747 2.21387 3.08105L0.548828 2.90625C0.465799 2.89483 0.391423 2.85156 0.342773 2.78613C0.294176 2.72077 0.275202 2.63932 0.291016 2.56055C0.675845 0.611236 2.51585 0.0225673 4.16406 0.0224609ZM26.8672 0.0166016C27.7089 0.0166438 28.8098 0.230302 29.4736 0.84082C30.2528 1.53413 30.2472 2.43972 30.2412 3.43164C30.2407 3.51909 30.2402 3.60758 30.2402 3.69629V6.28027C30.2403 6.97412 30.5101 7.32031 30.7939 7.68457C30.8275 7.72765 30.861 7.77122 30.8945 7.81543C31.011 7.96807 31.0363 8.14772 30.8877 8.24902C30.5335 8.53233 29.9046 9.056 29.5596 9.34961C29.4449 9.44293 29.2817 9.45798 29.1504 9.3877C28.6579 8.9954 28.5115 8.78737 28.2812 8.45898C28.2428 8.4041 28.2015 8.34525 28.1562 8.28223C27.2057 9.20988 26.5282 9.48725 25.3018 9.4873C23.8437 9.4873 22.7091 8.62601 22.709 6.9043C22.709 5.55669 23.471 4.64159 24.5566 4.19238C25.3509 3.85828 26.4143 3.75567 27.3311 3.66699C27.4974 3.65091 27.6593 3.63462 27.8135 3.61816V3.28418C27.8165 2.91866 27.8202 2.51144 27.6016 2.20605C27.3961 1.90083 26.9861 1.77441 26.6289 1.77441C25.9682 1.77453 25.3829 2.09976 25.2373 2.77051C25.2184 2.92649 25.0927 3.05101 24.9307 3.0752L23.251 2.90234C23.1675 2.89128 23.0919 2.84794 23.043 2.78223C22.994 2.71648 22.9759 2.63391 22.9922 2.55469C23.3786 0.603733 25.2189 0.0166016 26.8672 0.0166016ZM43.6045 0.0117188C46.1759 0.0117188 47.5664 2.12608 47.5664 4.8125C47.5662 7.40916 46.0331 9.46875 43.6045 9.46875C41.0823 9.46865 39.7081 7.35463 39.708 4.72266C39.708 2.09062 41.0991 0.0118137 43.6045 0.0117188ZM18.373 0.0419922C19.2859 -0.0933441 20.2045 0.252968 20.7754 0.948242C21.3257 1.66462 21.2119 2.71003 21.2119 3.61719V8.98828C21.2103 9.07143 21.174 9.15043 21.1113 9.20801C21.0486 9.26556 20.9648 9.29676 20.8779 9.29492H19.1465C18.9764 9.28626 18.8422 9.15329 18.8398 8.99023V4.47754C18.8398 4.11935 18.8723 3.22339 18.791 2.88281C18.6622 2.31051 18.2738 2.14941 17.7725 2.14941C17.313 2.16298 16.9056 2.43716 16.7373 2.84668C16.604 3.17044 16.5792 3.65354 16.5752 4.0791V8.98828C16.5736 9.07117 16.5379 9.15047 16.4756 9.20801C16.4132 9.26555 16.3288 9.29641 16.2422 9.29492H14.5068C14.337 9.28564 14.2033 9.15305 14.2002 8.99023V4.47754C14.2002 3.52779 14.3535 2.12901 13.127 2.12891C11.9003 2.12891 11.9307 3.48958 11.9307 4.47754V8.98828C11.9291 9.07144 11.8928 9.15043 11.8301 9.20801C11.7674 9.26557 11.6835 9.29677 11.5967 9.29492H9.86426C9.70367 9.28686 9.57333 9.16786 9.55762 9.01465V0.500977C9.56344 0.330357 9.71037 0.194603 9.88867 0.196289H11.5029C11.6683 0.205026 11.8004 0.331875 11.8096 0.490234V1.60156H11.8418C12.2619 0.525528 13.0549 0.0253906 14.1221 0.0253906C15.1892 0.0254318 15.8841 0.525573 16.3701 1.60156C16.6946 0.773531 17.4602 0.177364 18.373 0.0419922ZM53.5254 0C54.3012 4.09099e-05 55.0588 0.268992 55.5479 1.00293C56 1.68411 56 2.83087 56 3.6543V9.01074C55.9746 9.16692 55.8321 9.28061 55.667 9.27734H53.9258C53.7697 9.27087 53.6406 9.15891 53.6191 9.01074V4.3877C53.6192 3.45712 53.7321 2.09508 52.5352 2.09473C52.0905 2.11441 51.6985 2.38106 51.5322 2.77637C51.2901 3.29593 51.2578 3.8153 51.2578 4.39062V8.97266C51.251 9.14533 51.1004 9.28059 50.9199 9.27734H49.1924C49.0222 9.26878 48.8881 9.13576 48.8857 8.97266V0.458008C48.904 0.29648 49.0481 0.174881 49.2178 0.178711H50.8252C50.9715 0.183271 51.0969 0.280918 51.1318 0.416992V1.71875H51.165C51.6496 0.554695 52.3294 0 53.5254 0ZM38.3779 0.164062C38.4643 0.161368 38.5485 0.193136 38.6104 0.250977C38.6721 0.308887 38.7069 0.388904 38.7061 0.47168V1.51465C38.7061 1.68926 38.5525 1.91847 38.2783 2.2793L35.3281 6.31055C36.4227 6.28564 37.5802 6.44286 38.5752 6.97852C38.759 7.07234 38.876 7.2538 38.8818 7.45312V8.75684C38.8816 8.93586 38.678 9.14226 38.4619 9.03516C36.5734 8.10588 34.3313 8.11015 32.4463 9.0459C32.2486 9.14678 32.042 8.94266 32.042 8.76367V7.52344C32.0239 7.23105 32.0979 6.94045 32.2539 6.68848L35.6709 1.99023H32.6904C32.6037 1.99345 32.5193 1.96307 32.457 1.90527C32.3947 1.84729 32.3594 1.76677 32.3604 1.68359V0.47168C32.3563 0.388709 32.3896 0.3075 32.4512 0.249023C32.5128 0.19054 32.5979 0.159402 32.6846 0.164062H38.3779ZM5.10449 4.95996C3.85177 4.95996 2.52832 5.21768 2.52832 6.62988C2.52848 7.34888 2.91641 7.83291 3.58008 7.83301C4.06761 7.83301 4.50525 7.54582 4.78125 7.0791C5.10596 6.52629 5.1051 6.00805 5.10449 5.39746V4.95996ZM27.8164 4.95312C26.5637 4.95312 25.2402 5.2084 25.2402 6.62207C25.2402 7.33992 25.6281 7.82422 26.292 7.82422C26.778 7.8242 27.2168 7.53663 27.4912 7.07129C27.817 6.51548 27.8168 5.99516 27.8164 5.37695V4.95312ZM43.6211 1.75C42.3442 1.75035 42.2627 3.41487 42.2627 4.4541C42.2627 4.46536 42.2627 4.47675 42.2627 4.48828C42.2625 5.54132 42.2624 7.71275 43.6045 7.71289C44.9613 7.71289 45.0127 5.9223 45.0127 4.83008C45.0127 4.1137 44.9799 3.25292 44.7529 2.57324C44.5582 1.98617 44.17 1.75 43.6211 1.75Z" fill="#E4E4E4"/>
</svg>
