<svg width="33" height="31" viewBox="0 0 33 31" fill="none" xmlns="http://www.w3.org/2000/svg">
<path d="M8.2108 1.95548C15.874 -2.06259 25.7125 0.64558 30.1851 8.00503C34.6577 15.3645 32.0708 24.5877 24.4076 28.6057C16.7443 32.6238 6.90671 29.9152 2.43409 22.5557C-2.03846 15.1963 0.54777 5.97361 8.2108 1.95548ZM11.7402 9.81698L8.22176 10.7019L8.76168 12.4729C8.76168 12.4729 10.0387 12.1292 10.0313 12.1554C10.7389 11.9796 11.0885 12.3115 11.2578 12.6316L13.5373 20.0985C13.5703 20.3169 13.5421 20.6875 13.0485 20.8118C13.0611 20.8276 11.7975 21.124 11.7783 21.1285L12.0359 23.1979L15.5587 22.3285L16.4009 25.0838L18.1461 24.6493L17.314 21.9218C17.7955 21.8108 18.261 21.6994 18.7135 21.586L19.5405 24.3006L21.2874 23.8651L20.4493 21.113C23.337 20.2191 25.1778 19.0033 24.6327 16.3203C24.1155 14.5287 22.8627 13.4791 21.0799 13.515C21.944 12.7722 22.3134 11.7511 21.7266 10.3497C20.9272 8.43528 18.9406 8.22343 16.629 8.59812L15.797 5.87065L14.0501 6.30616L14.8614 8.96121C14.4028 9.07566 13.9354 9.20149 13.4713 9.32761L12.6547 6.65533L10.91 7.09073L11.7402 9.81698ZM15.6038 16.2103C16.7918 15.9156 20.4154 14.6678 21.0782 16.8275C21.7125 18.8969 17.9167 19.5857 16.7295 19.8811L15.6038 16.2103ZM14.1497 11.2604C15.1392 11.0157 18.1492 9.94918 18.7529 11.9117C19.3297 13.7936 16.1594 14.3445 15.1716 14.5905L14.1497 11.2604Z" fill="#8FC258"/>
</svg>
