<svg width="45" height="26" viewBox="0 0 45 26" fill="none" xmlns="http://www.w3.org/2000/svg">
<path d="M13.6475 0C21.1848 0 27.2949 5.79508 27.2949 12.9434C27.2948 20.0915 21.1847 25.8857 13.6475 25.8857C6.11026 25.8857 0.000149995 20.0915 0 12.9434C0 5.79511 6.11017 4.10604e-05 13.6475 0Z" fill="#ED0006"/>
<path d="M31.3523 0C38.8896 0 44.9998 5.79508 44.9998 12.9434C44.9996 20.0915 38.8895 25.8857 31.3523 25.8857C23.8151 25.8857 17.705 20.0915 17.7048 12.9434C17.7048 5.79511 23.815 4.10604e-05 31.3523 0Z" fill="#0099DF"/>
<path d="M22.5 3.09204C25.4344 5.46604 27.2949 8.99894 27.2949 12.9436C27.2948 16.8879 25.434 20.4193 22.5 22.7932C19.5661 20.4193 17.7052 16.8878 17.7051 12.9436C17.7051 8.999 19.5657 5.46604 22.5 3.09204Z" fill="#6C6BBD"/>
</svg>
