<svg width="49" height="15" viewBox="0 0 49 15" fill="none" xmlns="http://www.w3.org/2000/svg">
<path fill-rule="evenodd" clip-rule="evenodd" d="M12.2505 14.5467H8.00987L4.82991 3.1732C4.67897 2.65002 4.3585 2.18749 3.88708 1.9695C2.71062 1.42168 1.41424 0.985693 0 0.765805V0.327925H6.83134C7.77417 0.327925 8.48129 0.985693 8.59914 1.74961L10.2491 9.95371L14.4877 0.327925H18.6104L12.2505 14.5467ZM20.9675 14.5467H16.9626L20.2604 0.327925H24.2653L20.9675 14.5467ZM29.4467 4.26696C29.5646 3.50115 30.2717 3.06327 31.0967 3.06327C32.3931 2.95332 33.8052 3.17321 34.9838 3.71914L35.6909 0.657768C34.5123 0.219888 33.216 0 32.0395 0C28.1524 0 25.3239 1.96951 25.3239 4.70295C25.3239 6.7824 27.3274 7.87426 28.7417 8.53203C30.2717 9.1879 30.861 9.62578 30.7431 10.2817C30.7431 11.2655 29.5646 11.7033 28.3881 11.7033C26.9739 11.7033 25.5596 11.3754 24.2653 10.8276L23.5582 13.8908C24.9724 14.4368 26.5025 14.6567 27.9167 14.6567C32.2752 14.7647 34.9838 12.7971 34.9838 9.84377C34.9838 6.12464 29.4467 5.90664 29.4467 4.26696V4.26696ZM49 14.5467L45.82 0.327925H42.4044C41.6972 0.327925 40.9901 0.765805 40.7544 1.42168L34.8659 14.5467H38.9887L39.8116 12.4691H44.8772L45.3486 14.5467H49ZM42.9936 4.15702L44.1701 9.51585H40.8723L42.9936 4.15702Z" fill="#172B85"/>
</svg>
