<svg width="29" height="28" viewBox="0 0 29 28" fill="none" xmlns="http://www.w3.org/2000/svg">
<g opacity="0.7" clip-path="url(#clip0_33_570)">
<path d="M28.2211 8.4001C28.2211 8.4001 27.9477 6.46963 27.1055 5.62197C26.0391 4.50635 24.8469 4.50088 24.3 4.43525C20.3844 4.15088 14.5055 4.15088 14.5055 4.15088H14.4945C14.4945 4.15088 8.61562 4.15088 4.7 4.43525C4.15313 4.50088 2.96094 4.50635 1.89453 5.62197C1.05234 6.46963 0.784375 8.4001 0.784375 8.4001C0.784375 8.4001 0.5 10.6696 0.5 12.9337V15.0556C0.5 17.3196 0.778906 19.5892 0.778906 19.5892C0.778906 19.5892 1.05234 21.5196 1.88906 22.3673C2.95547 23.4829 4.35547 23.4446 4.97891 23.5649C7.22109 23.7782 14.5 23.8438 14.5 23.8438C14.5 23.8438 20.3844 23.8329 24.3 23.554C24.8469 23.4884 26.0391 23.4829 27.1055 22.3673C27.9477 21.5196 28.2211 19.5892 28.2211 19.5892C28.2211 19.5892 28.5 17.3251 28.5 15.0556V12.9337C28.5 10.6696 28.2211 8.4001 28.2211 8.4001ZM11.607 17.6313V9.76182L19.1703 13.7103L11.607 17.6313Z" fill="#E4E4E4"/>
</g>
<defs>
<clipPath id="clip0_33_570">
<rect width="28" height="28" fill="white" transform="translate(0.5)"/>
</clipPath>
</defs>
</svg>
