<svg width="29" height="27" viewBox="0 0 29 27" fill="none" xmlns="http://www.w3.org/2000/svg">
<g opacity="0.7" clip-path="url(#clip0_33_564)">
<path d="M14.5 0C6.76808 0 0.5 6.04422 0.5 13.5C0.5 19.831 5.02032 25.1435 11.1182 26.6026V17.6256H8.23136V13.5H11.1182V11.7223C11.1182 7.12746 13.2747 4.9977 17.953 4.9977C18.84 4.9977 20.3705 5.16564 20.9966 5.33304V9.07254C20.6662 9.03906 20.0922 9.02232 19.3793 9.02232C17.0838 9.02232 16.1968 9.86094 16.1968 12.0409V13.5H20.7698L19.9841 17.6256H16.1968V26.9012C23.129 26.0939 28.5006 20.4023 28.5006 13.5C28.5 6.04422 22.2319 0 14.5 0Z" fill="#E4E4E4"/>
</g>
<defs>
<clipPath id="clip0_33_564">
<rect width="28" height="27" fill="#E4E4E4" transform="translate(0.5)"/>
</clipPath>
</defs>
</svg>
