<svg width="201" height="77" viewBox="0 0 201 77" fill="none" xmlns="http://www.w3.org/2000/svg">
<rect width="81" height="77" fill="#201F24"/>
<rect x="40" width="1" height="77" fill="#777786"/>
<rect x="81" y="38" width="1" height="81" transform="rotate(90 81 38)" fill="#777786"/>
<path d="M41 39C44.9397 39 48.8407 39.776 52.4805 41.2836C56.1203 42.7913 59.4274 45.001 62.2132 47.7868C64.999 50.5726 67.2087 53.8797 68.7164 57.5195C70.224 61.1593 71 65.0603 71 69L41 69L41 39Z" fill="#14528A"/>
<path d="M41 38C41 34.0603 41.776 30.1593 43.2836 26.5195C44.7913 22.8797 47.001 19.5726 49.7868 16.7868C52.5726 14.001 55.8797 11.7913 59.5195 10.2836C63.1593 8.77597 67.0603 8 71 8L71 38L41 38Z" fill="#14528A"/>
<path d="M40 38C36.0603 38 32.1593 37.224 28.5195 35.7164C24.8797 34.2087 21.5726 31.999 18.7868 29.2132C16.001 26.4274 13.7913 23.1203 12.2836 19.4805C10.776 15.8407 10 11.9397 10 8L40 8L40 38Z" fill="#14528A"/>
<path d="M10 39C13.9397 39 17.8407 39.776 21.4805 41.2836C25.1203 42.7913 28.4274 45.001 31.2132 47.7868C33.999 50.5726 36.2087 53.8797 37.7164 57.5195C39.224 61.1593 40 65.0603 40 69L10 69L10 39Z" fill="#14528A"/>
<rect width="81" height="77" transform="translate(120)" fill="#201F24"/>
<rect x="160" width="1" height="77" fill="#777786"/>
<rect x="201" y="38" width="1" height="81" transform="rotate(90 201 38)" fill="#777786"/>
<path d="M191 39C191 42.9397 190.224 46.8407 188.716 50.4805C187.209 54.1203 184.999 57.4274 182.213 60.2132C179.427 62.999 176.12 65.2087 172.481 66.7164C168.841 68.224 164.94 69 161 69L161 39L191 39Z" fill="#14528A"/>
<path d="M161 8C164.94 8 168.841 8.77597 172.481 10.2836C176.12 11.7913 179.427 14.001 182.213 16.7868C184.999 19.5726 187.209 22.8797 188.716 26.5195C190.224 30.1593 191 34.0603 191 38L161 38V8Z" fill="#14528A"/>
<path d="M130 38C130 34.0603 130.776 30.1593 132.284 26.5195C133.791 22.8797 136.001 19.5726 138.787 16.7868C141.573 14.001 144.88 11.7913 148.519 10.2836C152.159 8.77597 156.06 8 160 8L160 38L130 38Z" fill="#14528A"/>
<path d="M160 69C156.06 69 152.159 68.224 148.519 66.7164C144.88 65.2087 141.573 62.999 138.787 60.2132C136.001 57.4274 133.791 54.1203 132.284 50.4805C130.776 46.8407 130 42.9397 130 39L160 39V69Z" fill="#14528A"/>
<path d="M91 38.5C90.7239 38.5 90.5 38.7239 90.5 39C90.5 39.2761 90.7239 39.5 91 39.5V39V38.5ZM111.354 39.3536C111.549 39.1583 111.549 38.8417 111.354 38.6464L108.172 35.4645C107.976 35.2692 107.66 35.2692 107.464 35.4645C107.269 35.6597 107.269 35.9763 107.464 36.1716L110.293 39L107.464 41.8284C107.269 42.0237 107.269 42.3403 107.464 42.5355C107.66 42.7308 107.976 42.7308 108.172 42.5355L111.354 39.3536ZM91 39V39.5L111 39.5V39V38.5L91 38.5V39Z" fill="#777786"/>
</svg>
