<svg width="33" height="45" viewBox="0 0 33 45" fill="none" xmlns="http://www.w3.org/2000/svg">
<path d="M13.2 0H19.8C23.2997 0.00372225 26.6549 1.35951 29.1296 3.76988C31.6042 6.18026 32.9962 9.44836 33 12.8571V32.1429C32.9962 35.5516 31.6042 38.8197 29.1296 41.2301C26.6549 43.6405 23.2997 44.9963 19.8 45H13.2C9.70032 44.9963 6.34506 43.6405 3.87041 41.2301C1.39576 38.8197 0.00382151 35.5516 0 32.1429V12.8571C0.00382151 9.44836 1.39576 6.18026 3.87041 3.76988C6.34506 1.35951 9.70032 0.00372225 13.2 0ZM3.3 12.8571V17.6786H16.5V3.21429H13.2C10.5752 3.21694 8.05867 4.23374 6.20266 6.04155C4.34664 7.84936 3.30273 10.3005 3.3 12.8571ZM13.2 41.7857H19.8C22.4248 41.7831 24.9413 40.7663 26.7973 38.9585C28.6534 37.1506 29.6973 34.6995 29.7 32.1429V20.8929H3.3V32.1429C3.30273 34.6995 4.34664 37.1506 6.20266 38.9585C8.05867 40.7663 10.5752 41.7831 13.2 41.7857Z" fill="#777786"/>
</svg>
