<svg width="81" height="77" viewBox="0 0 81 77" fill="none" xmlns="http://www.w3.org/2000/svg">
<circle cx="28.5" cy="27.5" r="4.5" fill="#14528A"/>
<circle cx="28.5" cy="4.5" r="4.5" fill="#14528A"/>
<circle cx="28.5" cy="38.5" r="4.5" fill="#14528A"/>
<circle cx="28.5" cy="60.5" r="4.5" fill="#14528A"/>
<circle cx="28.5" cy="15.5" r="4.5" fill="#14528A"/>
<circle cx="28.5" cy="49.5" r="4.5" fill="#14528A"/>
<circle cx="28.5" cy="72.5" r="4.5" fill="#14528A"/>
<circle cx="40.5" cy="27.5" r="4.5" fill="#14528A"/>
<circle cx="64.5" cy="27.5" r="4.5" fill="#14528A"/>
<circle cx="4.5" cy="27.5" r="4.5" fill="#14528A"/>
<circle cx="40.5" cy="4.5" r="4.5" fill="#14528A"/>
<circle cx="40.5" cy="38.5" r="4.5" fill="#14528A"/>
<path d="M69 38.5C69 40.9853 66.9853 43 64.5 43C62.0147 43 60 40.9853 60 38.5C60 36.0147 62.0147 34 64.5 34C66.9853 34 69 36.0147 69 38.5Z" fill="#14528A"/>
<circle cx="4.5" cy="38.5" r="4.5" fill="#14528A"/>
<circle cx="40.5" cy="60.5" r="4.5" fill="#14528A"/>
<circle cx="40.5" cy="15.5" r="4.5" fill="#14528A"/>
<circle cx="40.5" cy="49.5" r="4.5" fill="#14528A"/>
<circle cx="64.5" cy="49.5" r="4.5" fill="#14528A"/>
<circle cx="4.5" cy="49.5" r="4.5" fill="#14528A"/>
<circle cx="40.5" cy="72.5" r="4.5" fill="#14528A"/>
<circle cx="52.5" cy="27.5" r="4.5" fill="#14528A"/>
<circle cx="76.5" cy="27.5" r="4.5" fill="#14528A"/>
<circle cx="16.5" cy="27.5" r="4.5" fill="#14528A"/>
<circle cx="52.5" cy="4.5" r="4.5" fill="#14528A"/>
<circle cx="52.5" cy="38.5" r="4.5" fill="#14528A"/>
<circle cx="76.5" cy="38.5" r="4.5" fill="#14528A"/>
<circle cx="16.5" cy="38.5" r="4.5" fill="#14528A"/>
<circle cx="52.5" cy="60.5" r="4.5" fill="#14528A"/>
<circle cx="52.5" cy="15.5" r="4.5" fill="#14528A"/>
<circle cx="52.5" cy="49.5" r="4.5" fill="#14528A"/>
<circle cx="76.5" cy="49.5" r="4.5" fill="#14528A"/>
<circle cx="16.5" cy="49.5" r="4.5" fill="#14528A"/>
<circle cx="52.5" cy="72.5" r="4.5" fill="#14528A"/>
<circle cx="28.5" cy="27.5" r="4.5" fill="#14528A"/>
<circle cx="28.5" cy="4.5" r="4.5" fill="#14528A"/>
<circle cx="28.5" cy="38.5" r="4.5" fill="#14528A"/>
<circle cx="28.5" cy="60.5" r="4.5" fill="#14528A"/>
<circle cx="28.5" cy="15.5" r="4.5" fill="#14528A"/>
<circle cx="28.5" cy="49.5" r="4.5" fill="#14528A"/>
<circle cx="28.5" cy="72.5" r="4.5" fill="#14528A"/>
<circle cx="40.5" cy="27.5" r="4.5" fill="#14528A"/>
<circle cx="64.5" cy="27.5" r="4.5" fill="#14528A"/>
<circle cx="4.5" cy="27.5" r="4.5" fill="#14528A"/>
<circle cx="40.5" cy="4.5" r="4.5" fill="#14528A"/>
<circle cx="40.5" cy="38.5" r="4.5" fill="#33A5F0"/>
<path d="M69 38.5C69 40.9853 66.9853 43 64.5 43C62.0147 43 60 40.9853 60 38.5C60 36.0147 62.0147 34 64.5 34C66.9853 34 69 36.0147 69 38.5Z" fill="#3B3B4A"/>
<circle cx="4.5" cy="38.5" r="4.5" fill="#14528A"/>
<circle cx="40.5" cy="60.5" r="4.5" fill="#14528A"/>
<circle cx="40.5" cy="15.5" r="4.5" fill="#14528A"/>
<circle cx="40.5" cy="49.5" r="4.5" fill="#14528A"/>
<circle cx="64.5" cy="49.5" r="4.5" fill="#14528A"/>
<circle cx="4.5" cy="49.5" r="4.5" fill="#14528A"/>
<circle cx="40.5" cy="72.5" r="4.5" fill="#14528A"/>
<circle cx="52.5" cy="27.5" r="4.5" fill="#14528A"/>
<circle cx="76.5" cy="27.5" r="4.5" fill="#14528A"/>
<circle cx="16.5" cy="27.5" r="4.5" fill="#14528A"/>
<circle cx="52.5" cy="4.5" r="4.5" fill="#14528A"/>
<circle cx="52.5" cy="38.5" r="4.5" fill="#3B3B4A"/>
<circle cx="76.5" cy="38.5" r="4.5" fill="#14528A"/>
<circle cx="16.5" cy="38.5" r="4.5" fill="#14528A"/>
<circle cx="52.5" cy="60.5" r="4.5" fill="#14528A"/>
<circle cx="52.5" cy="15.5" r="4.5" fill="#14528A"/>
<circle cx="52.5" cy="49.5" r="4.5" fill="#14528A"/>
<circle cx="76.5" cy="49.5" r="4.5" fill="#14528A"/>
<circle cx="16.5" cy="49.5" r="4.5" fill="#14528A"/>
<circle cx="52.5" cy="72.5" r="4.5" fill="#14528A"/>
</svg>
