<svg width="81" height="75" viewBox="0 0 81 75" fill="none" xmlns="http://www.w3.org/2000/svg">
<circle cx="28.5" cy="26.5" r="4.5" fill="#3B3B4A"/>
<circle cx="28.5" cy="4.5" r="4.5" fill="#3B3B4A"/>
<circle cx="28.5" cy="59.5" r="4.5" fill="#3B3B4A"/>
<circle cx="28.5" cy="15.5" r="4.5" fill="#3B3B4A"/>
<circle cx="28.5" cy="48.5" r="4.5" fill="#3B3B4A"/>
<circle cx="28.5" cy="70.5" r="4.5" fill="#3B3B4A"/>
<circle cx="40.5" cy="26.5" r="4.5" fill="#3B3B4A"/>
<circle cx="64.5" cy="26.5" r="4.5" fill="#3B3B4A"/>
<circle cx="4.5" cy="26.5" r="4.5" fill="#3B3B4A"/>
<circle cx="40.5" cy="4.5" r="4.5" fill="#3B3B4A"/>
<circle cx="40.5" cy="59.5" r="4.5" fill="#3B3B4A"/>
<circle cx="40.5" cy="15.5" r="4.5" fill="#3B3B4A"/>
<circle cx="40.5" cy="48.5" r="4.5" fill="#3B3B4A"/>
<circle cx="64.5" cy="48.5" r="4.5" fill="#3B3B4A"/>
<circle cx="4.5" cy="48.5" r="4.5" fill="#3B3B4A"/>
<circle cx="40.5" cy="70.5" r="4.5" fill="#3B3B4A"/>
<circle cx="52.5" cy="26.5" r="4.5" fill="#3B3B4A"/>
<circle cx="76.5" cy="26.5" r="4.5" fill="#3B3B4A"/>
<circle cx="16.5" cy="26.5" r="4.5" fill="#3B3B4A"/>
<circle cx="52.5" cy="4.5" r="4.5" fill="#3B3B4A"/>
<circle cx="52.5" cy="59.5" r="4.5" fill="#3B3B4A"/>
<circle cx="52.5" cy="15.5" r="4.5" fill="#3B3B4A"/>
<circle cx="52.5" cy="48.5" r="4.5" fill="#3B3B4A"/>
<circle cx="76.5" cy="48.5" r="4.5" fill="#3B3B4A"/>
<circle cx="16.5" cy="48.5" r="4.5" fill="#3B3B4A"/>
<circle cx="52.5" cy="70.5" r="4.5" fill="#3B3B4A"/>
<circle cx="28.5" cy="26.5" r="4.5" fill="#3B3B4A"/>
<circle cx="28.5" cy="4.5" r="4.5" fill="#3B3B4A"/>
<circle cx="28.5" cy="37.5" r="4.5" fill="#3B3B4A"/>
<circle cx="28.5" cy="59.5" r="4.5" fill="#3B3B4A"/>
<circle cx="28.5" cy="15.5" r="4.5" fill="#3B3B4A"/>
<circle cx="28.5" cy="48.5" r="4.5" fill="#3B3B4A"/>
<circle cx="28.5" cy="70.5" r="4.5" fill="#3B3B4A"/>
<circle cx="40.5" cy="26.5" r="4.5" fill="#3B3B4A"/>
<circle cx="64.5" cy="26.5" r="4.5" fill="#3B3B4A"/>
<circle cx="4.5" cy="26.5" r="4.5" fill="#3B3B4A"/>
<circle cx="40.5" cy="4.5" r="4.5" fill="#3B3B4A"/>
<circle cx="40.5" cy="37.5" r="4.5" fill="#33A5F0"/>
<path d="M69 37.5C69 39.9853 66.9853 42 64.5 42C62.0147 42 60 39.9853 60 37.5C60 35.0147 62.0147 33 64.5 33C66.9853 33 69 35.0147 69 37.5Z" fill="#3B3B4A"/>
<circle cx="4.5" cy="37.5" r="4.5" fill="#3B3B4A"/>
<circle cx="40.5" cy="59.5" r="4.5" fill="#3B3B4A"/>
<circle cx="40.5" cy="15.5" r="4.5" fill="#3B3B4A"/>
<circle cx="40.5" cy="48.5" r="4.5" fill="#3B3B4A"/>
<circle cx="64.5" cy="48.5" r="4.5" fill="#3B3B4A"/>
<circle cx="4.5" cy="48.5" r="4.5" fill="#3B3B4A"/>
<circle cx="40.5" cy="70.5" r="4.5" fill="#3B3B4A"/>
<circle cx="52.5" cy="26.5" r="4.5" fill="#3B3B4A"/>
<circle cx="76.5" cy="26.5" r="4.5" fill="#3B3B4A"/>
<circle cx="16.5" cy="26.5" r="4.5" fill="#3B3B4A"/>
<circle cx="52.5" cy="4.5" r="4.5" fill="#3B3B4A"/>
<circle cx="52.5" cy="37.5" r="4.5" fill="#3B3B4A"/>
<circle cx="76.5" cy="37.5" r="4.5" fill="#3B3B4A"/>
<circle cx="16.5" cy="37.5" r="4.5" fill="#3B3B4A"/>
<circle cx="52.5" cy="59.5" r="4.5" fill="#3B3B4A"/>
<circle cx="52.5" cy="15.5" r="4.5" fill="#3B3B4A"/>
<circle cx="52.5" cy="48.5" r="4.5" fill="#3B3B4A"/>
<circle cx="76.5" cy="48.5" r="4.5" fill="#3B3B4A"/>
<circle cx="16.5" cy="48.5" r="4.5" fill="#3B3B4A"/>
<circle cx="52.5" cy="70.5" r="4.5" fill="#3B3B4A"/>
</svg>
