<svg width="50" height="20" viewBox="0 0 50 20" fill="none" xmlns="http://www.w3.org/2000/svg">
<path d="M44.9941 12.3999H45.0293L47.9482 5.53076H50L43.6934 19.3013H41.7471L44.0918 14.4849L39.9531 5.53076H42.0049L44.9941 12.3999ZM35.123 5.21924C36.5181 5.21924 37.6208 5.57537 38.4297 6.27783C39.2385 6.98029 39.6367 7.96207 39.6367 9.19971V15.0981H37.8311V13.771H37.749C36.9636 14.8636 35.9321 15.4097 34.6309 15.4097C33.529 15.4096 32.5911 15.0975 31.8525 14.4731C31.126 13.8934 30.7159 13.0353 30.7393 12.1323C30.7393 11.14 31.1374 10.359 31.9229 9.76807C32.7082 9.17716 33.7633 8.88726 35.0762 8.88721C36.2015 8.88721 37.116 9.08825 37.8428 9.46729V9.0542C37.8427 8.44111 37.5615 7.86179 37.0693 7.46045C36.5652 7.03674 35.9202 6.80225 35.252 6.80225C34.1971 6.80235 33.3644 7.22642 32.7549 8.07373L31.0908 7.08057C31.9817 5.84319 33.3297 5.21932 35.123 5.21924ZM26.1787 1.11572C27.386 1.09345 28.5583 1.52793 29.4141 2.33057C31.1256 3.84698 31.231 6.40047 29.625 8.03955L29.4141 8.24072C28.5349 9.03226 27.4564 9.43309 26.1787 9.43311H23.0605V15.0981H21.1729V1.11572H26.1787ZM35.3701 10.3364C34.608 10.3364 33.9631 10.5152 33.4473 10.8608C32.9431 11.2065 32.6855 11.6415 32.6855 12.1655C32.6856 12.6338 32.9198 13.0688 33.3066 13.3364C33.7287 13.6486 34.2449 13.8153 34.7725 13.8042C35.5697 13.8042 36.3318 13.5034 36.8945 12.9683C37.516 12.4108 37.832 11.7528 37.832 10.9946C37.2458 10.5488 36.4252 10.3253 35.3701 10.3364ZM23.0605 7.71631H26.2266C26.9299 7.73852 27.6102 7.47108 28.0908 6.9917C29.0755 6.02167 29.0521 4.46051 28.0322 3.52393C27.5516 3.07799 26.9065 2.8326 26.2266 2.83252H23.0605V7.71631Z" fill="#E4E4E4"/>
<path d="M16.5443 8.20703C16.5443 7.66067 16.4974 7.11431 16.4036 6.5791H8.4436V9.6677H13.0039C12.8163 10.6601 12.2067 11.5521 11.3158 12.1096V14.1166H14.0355C15.6299 12.7228 16.5443 10.6601 16.5443 8.20703Z" fill="#4285F4"/>
<path d="M8.44397 16.0568C10.7183 16.0568 12.6408 15.3432 14.0359 14.1167L11.3161 12.1096C10.5541 12.6002 9.58111 12.879 8.44397 12.879C6.24002 12.879 4.37605 11.4629 3.70783 9.56738H0.906006V11.6413C2.33623 14.3508 5.25528 16.0568 8.44397 16.0568Z" fill="#34A853"/>
<path d="M3.70803 9.56748C3.35628 8.57511 3.35628 7.49354 3.70803 6.49003V4.42725H0.905755C-0.301918 6.69073 -0.301918 9.36677 0.905755 11.6303L3.70803 9.56748Z" fill="#FBBC04"/>
<path d="M8.44397 3.17829C9.65145 3.15598 10.812 3.59084 11.6795 4.3825L14.0945 2.08557C12.5588 0.725247 10.5424 -0.0218151 8.44397 0.000485266C5.25528 0.000485266 2.33623 1.71761 0.906006 4.4271L3.70783 6.50104C4.37605 4.59436 6.24002 3.17829 8.44397 3.17829Z" fill="#EA4335"/>
</svg>
