<svg width="51" height="20" viewBox="0 0 51 20" fill="none" xmlns="http://www.w3.org/2000/svg">
<path fill-rule="evenodd" clip-rule="evenodd" d="M6.69242 3.62429C7.6325 3.69864 8.57258 3.17823 9.16013 2.51842C9.73789 1.84003 10.1198 0.929306 10.0219 0C9.18951 0.0371723 8.1613 0.520412 7.57375 1.19881C7.03516 1.78427 6.57491 2.73216 6.69242 3.62429ZM17.8755 15.5937V1.10587H23.6041C26.5615 1.10587 28.6277 3.03883 28.6277 5.86392C28.6277 8.68901 26.5223 10.6405 23.5258 10.6405H20.2453V15.5937H17.8755ZM10.012 3.80086C9.18381 3.75562 8.42812 4.03722 7.81772 4.26468C7.42492 4.41106 7.09229 4.53501 6.83923 4.53501C6.55524 4.53501 6.20888 4.40443 5.81999 4.25782C5.31042 4.06571 4.72784 3.84607 4.11691 3.85661C2.71658 3.8752 1.41417 4.62794 0.699318 5.82674C-0.76956 8.22435 0.317409 11.7743 1.73732 13.7258C2.43259 14.6923 3.26496 15.7517 4.36172 15.7146C4.84423 15.6973 5.19132 15.5575 5.55052 15.4129C5.96406 15.2463 6.39367 15.0733 7.06446 15.0733C7.71199 15.0733 8.1228 15.2418 8.51716 15.4036C8.89213 15.5573 9.25221 15.705 9.78678 15.696C10.9227 15.6774 11.6376 14.7295 12.3328 13.763C13.0831 12.7257 13.4129 11.7134 13.4629 11.5597L13.4688 11.542C13.4676 11.5408 13.4583 11.5368 13.4419 11.5297C13.1911 11.4207 11.274 10.5879 11.2557 8.35446C11.2372 6.47984 12.7762 5.53004 13.0185 5.38053C13.0332 5.37143 13.0432 5.36529 13.0477 5.36209C12.0684 3.98672 10.5408 3.83803 10.012 3.80086ZM32.9561 15.7053C34.4445 15.7053 35.8253 14.9897 36.452 13.856H36.501V15.5938H38.6945V8.38234C38.6945 6.2914 36.9318 4.94391 34.2193 4.94391C31.7026 4.94391 29.842 6.30999 29.7735 8.18719H31.9083C32.0845 7.29505 32.9561 6.70959 34.1508 6.70959C35.6 6.70959 36.4128 7.35081 36.4128 8.53103V9.33023L33.4555 9.49751C30.7038 9.65549 29.2153 10.7242 29.2153 12.5828C29.2153 14.46 30.7528 15.7053 32.9561 15.7053ZM33.5924 13.9861C32.3292 13.9861 31.5262 13.4099 31.5262 12.5271C31.5262 11.6163 32.2998 11.0866 33.7785 11.003L36.4127 10.845V11.6628C36.4127 13.0196 35.1984 13.9861 33.5924 13.9861ZM45.9702 16.1606C45.0204 18.6976 43.9334 19.534 41.6224 19.534C41.4461 19.534 40.8585 19.5154 40.7214 19.4783V17.7405C40.8683 17.759 41.2307 17.7776 41.4167 17.7776C42.4645 17.7776 43.0521 17.3594 43.4144 16.2722L43.6298 15.6309L39.6149 5.08331H42.0924L44.8833 13.6422H44.9322L47.7231 5.08331H50.1321L45.9702 16.1606ZM20.2451 3.00165H22.9772C25.0336 3.00165 26.2087 4.04248 26.2087 5.87321C26.2087 7.70394 25.0336 8.75406 22.9674 8.75406H20.2451V3.00165Z" fill="#E4E4E4"/>
</svg>
