<svg width="33" height="31" viewBox="0 0 33 31" fill="none" xmlns="http://www.w3.org/2000/svg">
<path d="M16.1279 0C25.0354 0 32.2568 6.76994 32.2568 15.1211C32.2568 23.4722 25.0354 30.2422 16.1279 30.2422C7.22068 30.242 0 23.4721 0 15.1211C4.36075e-06 6.77008 7.22068 0.000229039 16.1279 0ZM15.0303 8.34375L11.4463 7.51465L10.9736 9.28711C10.9883 9.29025 12.2752 9.56594 12.2646 9.58691C12.9841 9.75522 13.115 10.2002 13.0928 10.5527L11.0977 18.0225C11.0094 18.2257 10.7859 18.5312 10.2832 18.415C10.3013 18.4386 9.00258 18.1171 8.99121 18.1143L8.1084 20.0146L11.6875 20.8584L10.9521 23.6162L12.7266 24.0303L13.4561 21.3018C13.9408 21.4237 14.4116 21.5377 14.8721 21.6445L14.1465 24.3604L15.9229 24.7744L16.6592 22.0225C19.6903 22.5576 21.969 22.3414 22.9277 19.7812C23.4325 18.0024 22.8894 16.5311 21.2949 15.7559C22.4571 15.5062 23.3325 14.7932 23.5664 13.3193C23.888 11.3069 22.2462 10.2252 20.0029 9.50293L20.7314 6.77539L18.9541 6.36133L18.2461 9.0166C17.7794 8.90789 17.2991 8.80525 16.8213 8.7041L17.5352 6.03125L15.7588 5.61719L15.0303 8.34375ZM15.0107 15.6514C16.2157 15.9322 20.0786 16.4881 19.5049 18.6377C18.955 20.6983 15.2403 19.5847 14.0352 19.3047L15.0107 15.6514ZM16.3428 10.665C17.3467 10.8995 20.5759 11.336 20.0557 13.29C19.5545 15.1633 16.4619 14.2123 15.458 13.9795L16.3428 10.665Z" fill="#F7931A"/>
</svg>
