<svg width="33" height="45" viewBox="0 0 33 45" fill="none" xmlns="http://www.w3.org/2000/svg">
<path d="M19.8 0H13.2C9.70032 0.00372225 6.34506 1.35951 3.87041 3.76988C1.39576 6.18026 0.00382151 9.44836 0 12.8571V32.1429C0.00382151 35.5516 1.39576 38.8197 3.87041 41.2301C6.34506 43.6405 9.70032 44.9963 13.2 45H19.8C23.2997 44.9963 26.6549 43.6405 29.1296 41.2301C31.6042 38.8197 32.9962 35.5516 33 32.1429V12.8571C32.9962 9.44836 31.6042 6.18026 29.1296 3.76988C26.6549 1.35951 23.2997 0.00372225 19.8 0ZM29.7 12.8571V17.6786H16.5V3.21429H19.8C22.4248 3.21694 24.9413 4.23374 26.7973 6.04155C28.6534 7.84936 29.6973 10.3005 29.7 12.8571ZM19.8 41.7857H13.2C10.5752 41.7831 8.05868 40.7663 6.20266 38.9585C4.34664 37.1506 3.30273 34.6995 3.3 32.1429V20.8929H29.7V32.1429C29.6973 34.6995 28.6534 37.1506 26.7973 38.9585C24.9413 40.7663 22.4248 41.7831 19.8 41.7857Z" fill="#777786"/>
</svg>
