<svg width="81" height="77" viewBox="0 0 81 77" fill="none" xmlns="http://www.w3.org/2000/svg">
<circle cx="28.5" cy="27.5" r="4.5" fill="#14528A"/>
<circle cx="28.5" cy="4.5" r="4.5" fill="#14528A"/>
<circle cx="28.5" cy="38.5" r="4.5" fill="#14528A"/>
<circle cx="28.5" cy="60.5" r="4.5" fill="#14528A"/>
<circle cx="28.5" cy="15.5" r="4.5" fill="#14528A"/>
<circle cx="28.5" cy="49.5" r="4.5" fill="#14528A"/>
<circle cx="28.5" cy="72.5" r="4.5" fill="#14528A"/>
<circle cx="40.5" cy="27.5" r="4.5" fill="#14528A"/>
<circle cx="64.5" cy="27.5" r="4.5" fill="#14528A"/>
<circle cx="4.5" cy="27.5" r="4.5" fill="#14528A"/>
<circle cx="40.5" cy="4.5" r="4.5" fill="#14528A"/>
<circle cx="40.5" cy="38.5" r="4.5" fill="#14528A"/>
<path d="M69 38.5C69 40.9853 66.9853 43 64.5 43C62.0147 43 60 40.9853 60 38.5C60 36.0147 62.0147 34 64.5 34C66.9853 34 69 36.0147 69 38.5Z" fill="#14528A"/>
<circle cx="4.5" cy="38.5" r="4.5" fill="#14528A"/>
<circle cx="40.5" cy="60.5" r="4.5" fill="#14528A"/>
<circle cx="40.5" cy="15.5" r="4.5" fill="#14528A"/>
<circle cx="40.5" cy="49.5" r="4.5" fill="#14528A"/>
<circle cx="64.5" cy="49.5" r="4.5" fill="#14528A"/>
<circle cx="4.5" cy="49.5" r="4.5" fill="#14528A"/>
<circle cx="40.5" cy="72.5" r="4.5" fill="#14528A"/>
<circle cx="52.5" cy="27.5" r="4.5" fill="#14528A"/>
<circle cx="76.5" cy="27.5" r="4.5" fill="#14528A"/>
<circle cx="16.5" cy="27.5" r="4.5" fill="#14528A"/>
<circle cx="52.5" cy="4.5" r="4.5" fill="#14528A"/>
<circle cx="52.5" cy="38.5" r="4.5" fill="#14528A"/>
<circle cx="76.5" cy="38.5" r="4.5" fill="#14528A"/>
<circle cx="16.5" cy="38.5" r="4.5" fill="#14528A"/>
<circle cx="52.5" cy="60.5" r="4.5" fill="#14528A"/>
<circle cx="52.5" cy="15.5" r="4.5" fill="#14528A"/>
<circle cx="52.5" cy="49.5" r="4.5" fill="#14528A"/>
<circle cx="76.5" cy="49.5" r="4.5" fill="#14528A"/>
<circle cx="16.5" cy="49.5" r="4.5" fill="#14528A"/>
<circle cx="52.5" cy="72.5" r="4.5" fill="#14528A"/>
<circle cx="28.5" cy="27.5" r="4.5" fill="#14528A"/>
<circle cx="28.5" cy="4.5" r="4.5" fill="#14528A"/>
<circle cx="28.5" cy="38.5" r="4.5" fill="#14528A"/>
<circle cx="28.5" cy="60.5" r="4.5" fill="#14528A"/>
<circle cx="28.5" cy="15.5" r="4.5" fill="#14528A"/>
<circle cx="28.5" cy="49.5" r="4.5" fill="#14528A"/>
<circle cx="28.5" cy="72.5" r="4.5" fill="#14528A"/>
<circle cx="40.5" cy="27.5" r="4.5" fill="#14528A"/>
<circle cx="64.5" cy="27.5" r="4.5" fill="#14528A"/>
<circle cx="4.5" cy="27.5" r="4.5" fill="#14528A"/>
<circle cx="40.5" cy="4.5" r="4.5" fill="#14528A"/>
<circle cx="40.5" cy="38.5" r="4.5" fill="#33A5F0"/>
<circle cx="40.5" cy="38.5" r="4.5" fill="#3B3B4A"/>
<path d="M69 38.5C69 40.9853 66.9853 43 64.5 43C62.0147 43 60 40.9853 60 38.5C60 36.0147 62.0147 34 64.5 34C66.9853 34 69 36.0147 69 38.5Z" fill="#33A5F0"/>
<circle cx="4.5" cy="38.5" r="4.5" fill="#14528A"/>
<circle cx="40.5" cy="60.5" r="4.5" fill="#14528A"/>
<circle cx="40.5" cy="15.5" r="4.5" fill="#14528A"/>
<circle cx="40.5" cy="49.5" r="4.5" fill="#14528A"/>
<circle cx="64.5" cy="49.5" r="4.5" fill="#14528A"/>
<circle cx="4.5" cy="49.5" r="4.5" fill="#14528A"/>
<circle cx="40.5" cy="72.5" r="4.5" fill="#14528A"/>
<circle cx="52.5" cy="27.5" r="4.5" fill="#14528A"/>
<circle cx="76.5" cy="27.5" r="4.5" fill="#14528A"/>
<circle cx="16.5" cy="27.5" r="4.5" fill="#14528A"/>
<circle cx="52.5" cy="4.5" r="4.5" fill="#14528A"/>
<circle cx="52.5" cy="38.5" r="4.5" fill="#14528A"/>
<circle cx="76.5" cy="38.5" r="4.5" fill="#14528A"/>
<circle cx="16.5" cy="38.5" r="4.5" fill="#14528A"/>
<circle cx="52.5" cy="60.5" r="4.5" fill="#14528A"/>
<circle cx="52.5" cy="15.5" r="4.5" fill="#14528A"/>
<circle cx="52.5" cy="49.5" r="4.5" fill="#14528A"/>
<circle cx="76.5" cy="49.5" r="4.5" fill="#14528A"/>
<circle cx="16.5" cy="49.5" r="4.5" fill="#14528A"/>
<circle cx="52.5" cy="72.5" r="4.5" fill="#14528A"/>
<path d="M40.5521 37.3348C40.4978 37.601 40.6756 37.8669 40.9492 37.9286L45.4079 38.9338C45.6815 38.9955 45.9473 38.8296 46.0016 38.5634C46.0559 38.2971 45.8781 38.0312 45.6045 37.9696L41.6412 37.076L42.4275 33.2191C42.4818 32.9528 42.304 32.6869 42.0304 32.6252C41.7568 32.5636 41.491 32.7294 41.4367 32.9957L40.5521 37.3348ZM41.0475 37.4464L41.3283 37.8663C47.0297 34.309 51.3589 32.1804 54.6052 31.0726C57.8703 29.9583 59.9575 29.9056 61.2291 30.3751C62.4355 30.8205 63.0089 31.7796 63.1523 33.0569C63.2983 34.3577 62.9812 35.9247 62.4342 37.3859L62.909 37.5692L63.3838 37.7525C63.9573 36.2209 64.3261 34.4925 64.1563 32.9797C63.9838 31.4435 63.2394 30.0708 61.5587 29.4503C59.9433 28.8538 57.5741 29.001 54.2462 30.1367C50.8996 31.2787 46.4991 33.4499 40.7667 37.0266L41.0475 37.4464Z" fill="white"/>
</svg>
